<?xml version="1.0" encoding="UTF-8" standalone="no"?><!DOCTYPE svg PUBLIC "-//W3C//DTD SVG 1.1//EN" "http://www.w3.org/Graphics/SVG/1.1/DTD/svg11.dtd"><svg width="100%" height="100%" viewBox="0 0 120 120" version="1.1" xmlns="http://www.w3.org/2000/svg" xmlns:xlink="http://www.w3.org/1999/xlink" xml:space="preserve" xmlns:serif="http://www.serif.com/" style="fill-rule:evenodd;clip-rule:evenodd;stroke-linejoin:round;stroke-miterlimit:2;"><g id="Logo"><path d="M51.906,47.43l-2.574,0c-0.228,0 -0.417,-0.069 -0.567,-0.207c-0.15,-0.138 -0.237,-0.297 -0.261,-0.477l-1.656,-11.466l0,-0.054c0,-0.108 0.039,-0.201 0.117,-0.279c0.078,-0.078 0.171,-0.117 0.279,-0.117l3.348,0c0.396,0 0.612,0.162 0.648,0.486l0.612,5.076l0.738,-2.25c0.12,-0.348 0.324,-0.522 0.612,-0.522l1.836,0c0.288,0 0.492,0.174 0.612,0.522l0.738,2.232l0.612,-5.058c0.036,-0.324 0.252,-0.486 0.648,-0.486l3.348,0c0.108,0 0.201,0.039 0.279,0.117c0.078,0.078 0.117,0.171 0.117,0.279l-0,0.054l-1.656,11.466c-0.024,0.18 -0.111,0.339 -0.261,0.477c-0.15,0.138 -0.339,0.207 -0.567,0.207l-2.574,0c-0.372,0 -0.618,-0.162 -0.738,-0.486l-1.476,-3.69l-1.476,3.69c-0.12,0.324 -0.366,0.486 -0.738,0.486Z" style="fill-rule:nonzero;"/><path d="M32.856,53.79l5.184,0c1.752,0 3.195,0.435 4.329,1.305c1.134,0.87 1.701,2.085 1.701,3.645l0,2.682c0,1.632 -0.552,2.868 -1.656,3.708c-1.104,0.84 -2.556,1.26 -4.356,1.26l-5.202,-0c-0.132,-0 -0.246,-0.048 -0.342,-0.144c-0.096,-0.096 -0.144,-0.21 -0.144,-0.342l-0,-11.628c-0,-0.132 0.048,-0.246 0.144,-0.342c0.096,-0.096 0.21,-0.144 0.342,-0.144Zm4.014,3.51l-0,5.58l1.17,-0c0.408,-0 0.735,-0.123 0.981,-0.369c0.246,-0.246 0.369,-0.609 0.369,-1.089l-0,-2.682c-0,-0.96 -0.45,-1.44 -1.35,-1.44l-1.17,-0Z" style="fill-rule:nonzero;"/><path d="M37.275,81.84l5.544,-0c0.132,-0 0.246,0.048 0.342,0.144c0.096,0.096 0.144,0.21 0.144,0.342l0,2.538c0,0.132 -0.048,0.246 -0.144,0.342c-0.096,0.096 -0.21,0.144 -0.342,0.144l-9.378,-0c-0.132,-0 -0.246,-0.048 -0.342,-0.144c-0.096,-0.096 -0.144,-0.21 -0.144,-0.342l-0,-11.628c-0,-0.132 0.048,-0.246 0.144,-0.342c0.096,-0.096 0.21,-0.144 0.342,-0.144l9.234,0c0.132,0 0.246,0.048 0.342,0.144c0.096,0.096 0.144,0.21 0.144,0.342l0,2.538c0,0.132 -0.048,0.246 -0.144,0.342c-0.096,0.096 -0.21,0.144 -0.342,0.144l-5.4,-0l-0,1.134l5.004,-0c0.132,-0 0.246,0.048 0.342,0.144c0.096,0.096 0.144,0.21 0.144,0.342l0,2.34c0,0.132 -0.048,0.246 -0.144,0.342c-0.096,0.096 -0.21,0.144 -0.342,0.144l-5.004,-0l-0,1.134Z" style="fill-rule:nonzero;"/><path d="M60.204,65.796c0.036,0.072 0.054,0.15 0.054,0.234c0,0.084 -0.039,0.165 -0.117,0.243c-0.078,0.078 -0.171,0.117 -0.279,0.117l-3.69,0c-0.372,0 -0.63,-0.162 -0.774,-0.486l-1.548,-3.438l-0.738,0l0,3.438c0,0.132 -0.048,0.246 -0.144,0.342c-0.096,0.096 -0.21,0.144 -0.342,0.144l-3.528,0c-0.132,0 -0.246,-0.048 -0.342,-0.144c-0.096,-0.096 -0.144,-0.21 -0.144,-0.342l-0,-11.628c-0,-0.132 0.048,-0.246 0.144,-0.342c0.096,-0.096 0.21,-0.144 0.342,-0.144l5.328,0c1.728,0 3.078,0.387 4.05,1.161c0.972,0.774 1.458,1.884 1.458,3.33c-0,1.446 -0.648,2.583 -1.944,3.411l2.214,4.104Zm-7.092,-8.658l0,1.908l1.314,-0c0.264,-0 0.468,-0.087 0.612,-0.261c0.144,-0.174 0.216,-0.393 0.216,-0.657c-0,-0.264 -0.069,-0.495 -0.207,-0.693c-0.138,-0.198 -0.345,-0.297 -0.621,-0.297l-1.314,-0Z" style="fill-rule:nonzero;"/><path d="M60.204,84.756c0.036,0.072 0.054,0.15 0.054,0.234c0,0.084 -0.039,0.165 -0.117,0.243c-0.078,0.078 -0.171,0.117 -0.279,0.117l-3.69,0c-0.372,0 -0.63,-0.162 -0.774,-0.486l-1.548,-3.438l-0.738,0l0,3.438c0,0.132 -0.048,0.246 -0.144,0.342c-0.096,0.096 -0.21,0.144 -0.342,0.144l-3.528,0c-0.132,0 -0.246,-0.048 -0.342,-0.144c-0.096,-0.096 -0.144,-0.21 -0.144,-0.342l-0,-11.628c-0,-0.132 0.048,-0.246 0.144,-0.342c0.096,-0.096 0.21,-0.144 0.342,-0.144l5.328,0c1.728,0 3.078,0.387 4.05,1.161c0.972,0.774 1.458,1.884 1.458,3.33c-0,1.446 -0.648,2.583 -1.944,3.411l2.214,4.104Zm-7.092,-8.658l0,1.908l1.314,0c0.264,0 0.468,-0.087 0.612,-0.261c0.144,-0.174 0.216,-0.393 0.216,-0.657c-0,-0.264 -0.069,-0.495 -0.207,-0.693c-0.138,-0.198 -0.345,-0.297 -0.621,-0.297l-1.314,0Z" style="fill-rule:nonzero;"/><path d="M70.116,66.39l-3.672,0c-0.132,0 -0.246,-0.048 -0.342,-0.144c-0.096,-0.096 -0.144,-0.21 -0.144,-0.342l0,-11.628c0,-0.132 0.048,-0.246 0.144,-0.342c0.096,-0.096 0.21,-0.144 0.342,-0.144l3.672,0c0.132,0 0.246,0.048 0.342,0.144c0.096,0.096 0.144,0.21 0.144,0.342l0,11.628c0,0.132 -0.048,0.246 -0.144,0.342c-0.096,0.096 -0.21,0.144 -0.342,0.144Z" style="fill-rule:nonzero;"/><path d="M84.48,53.79l3.348,0c0.108,0 0.201,0.039 0.279,0.117c0.078,0.078 0.117,0.153 0.117,0.225c-0,0.072 -0.006,0.132 -0.018,0.18l-3.384,11.484c-0.108,0.396 -0.378,0.594 -0.81,0.594l-4.104,0c-0.432,0 -0.702,-0.198 -0.81,-0.594l-3.384,-11.484c-0.012,-0.048 -0.018,-0.108 -0.018,-0.18c-0,-0.072 0.039,-0.147 0.117,-0.225c0.078,-0.078 0.171,-0.117 0.279,-0.117l3.348,0c0.432,0 0.702,0.198 0.81,0.594l1.71,6.696l1.71,-6.696c0.108,-0.396 0.378,-0.594 0.81,-0.594Z" style="fill-rule:nonzero;"/><path d="M70.116,47.43l-3.672,0c-0.132,0 -0.246,-0.048 -0.342,-0.144c-0.096,-0.096 -0.144,-0.21 -0.144,-0.342l0,-11.628c0,-0.132 0.048,-0.246 0.144,-0.342c0.096,-0.096 0.21,-0.144 0.342,-0.144l3.672,-0c0.132,-0 0.246,0.048 0.342,0.144c0.096,0.096 0.144,0.21 0.144,0.342l0,11.628c0,0.132 -0.048,0.246 -0.144,0.342c-0.096,0.096 -0.21,0.144 -0.342,0.144Z" style="fill-rule:nonzero;"/><path d="M81.789,43.74l4.986,0c0.132,0 0.246,0.048 0.342,0.144c0.096,0.096 0.144,0.21 0.144,0.342l0,2.718c0,0.132 -0.048,0.246 -0.144,0.342c-0.096,0.096 -0.21,0.144 -0.342,0.144l-9.072,0c-0.132,0 -0.246,-0.048 -0.342,-0.144c-0.096,-0.096 -0.144,-0.21 -0.144,-0.342l0,-11.628c0,-0.132 0.048,-0.246 0.144,-0.342c0.096,-0.096 0.21,-0.144 0.342,-0.144l3.6,-0c0.132,-0 0.246,0.048 0.342,0.144c0.096,0.096 0.144,0.21 0.144,0.342l0,8.424Z" style="fill-rule:nonzero;"/></g></svg>